<?xml version="1.0" encoding="UTF-8" standalone="no"?>
<svg
   xmlns:dc="http://purl.org/dc/elements/1.1/"
   xmlns:cc="http://creativecommons.org/ns#"
   xmlns:rdf="http://www.w3.org/1999/02/22-rdf-syntax-ns#"
   xmlns:svg="http://www.w3.org/2000/svg"
   xmlns="http://www.w3.org/2000/svg"
   xmlns:sodipodi="http://sodipodi.sourceforge.net/DTD/sodipodi-0.dtd"
   xmlns:inkscape="http://www.inkscape.org/namespaces/inkscape"
   width="100.0px"
   height="100.0px"
   viewBox="0 0 40.0 40.0"
   version="1.1"
   id="SVGRoot"
   sodipodi:docname="logo.svg"
   inkscape:version="1.0.1 (3bc2e813f5, 2020-09-07)">
  <defs
     id="defs42" />
  <sodipodi:namedview
     id="base"
     pagecolor="#ffffff"
     bordercolor="#666666"
     borderopacity="1.0"
     inkscape:pageopacity="0.0"
     inkscape:pageshadow="2"
     inkscape:zoom="9.5784446"
     inkscape:cx="56.004152"
     inkscape:cy="35.118472"
     inkscape:document-units="px"
     inkscape:current-layer="layer1"
     inkscape:document-rotation="0"
     showgrid="true"
     inkscape:window-width="1431"
     inkscape:window-height="1030"
     inkscape:window-x="160"
     inkscape:window-y="0"
     inkscape:window-maximized="0"
     inkscape:object-nodes="false">
    <inkscape:grid
       type="xygrid"
       id="grid51" />
  </sodipodi:namedview>
  <metadata
     id="metadata45">
    <rdf:RDF>
      <cc:Work
         rdf:about="">
        <dc:format>image/svg+xml</dc:format>
        <dc:type
           rdf:resource="http://purl.org/dc/dcmitype/StillImage" />
        <dc:title></dc:title>
      </cc:Work>
    </rdf:RDF>
  </metadata>
  <g
     inkscape:label="Layer 1"
     inkscape:groupmode="layer"
     id="layer1">
    <path
       style="fill:#000000;stroke-width:0.025548"
       d="m 4.0773539,37.346711 c -0.053614,-0.116685 -0.3490637,-0.960446 -0.8170621,-2.33343 -0.053871,-0.158047 -0.3455131,-1.003103 -0.648091,-1.8779 -0.3025801,-0.874798 -0.550144,-1.61959 -0.550144,-1.655099 0,-0.0355 0.031866,-0.107393 0.070845,-0.159748 0.038958,-0.05236 0.2318213,-0.359699 0.4285757,-0.682977 0.1967572,-0.323283 0.8298574,-1.363663 1.4068932,-2.311954 0.5770357,-0.948295 1.1373226,-1.867525 1.245081,-2.042741 0.442488,-0.719483 1.4349396,-2.342986 1.8733055,-3.064453 0.257535,-0.423856 0.5155029,-0.847065 0.5732597,-0.940458 0.371414,-0.600604 0.6395409,-1.037845 1.297594,-2.116021 0.4077761,-0.668115 1.2005961,-1.967117 1.7618251,-2.886676 0.561224,-0.919556 1.106722,-1.812986 1.212213,-1.985404 0.10549,-0.172416 0.65786,-1.077608 1.227493,-2.011528 1.393581,-2.284808 2.536668,-4.1573398 2.886444,-4.728399 0.858935,-1.4023298 1.40717,-2.3085414 1.40717,-2.3260108 0,-0.020798 0.386228,-0.668243 0.822125,-1.378158 0.142985,-0.2328645 0.543591,-0.8877377 0.890243,-1.4552745 0.346654,-0.5675411 0.666045,-1.0789114 0.709767,-1.1363824 0.04372,-0.057476 0.135524,-0.1900761 0.204021,-0.2946766 0.0685,-0.104598 0.133076,-0.1846573 0.143519,-0.1779077 0.01045,0.00675 0.06748,0.098205 0.126742,0.2032424 0.05926,0.1050315 0.133569,0.2203558 0.165118,0.2562785 0.03156,0.03592 0.337551,0.5237819 0.680005,1.0841341 0.342456,0.5603555 0.739728,1.2095148 0.882823,1.442578 0.492411,0.8019787 0.872313,1.4358407 0.872313,1.4554534 0,0.019406 1.03901,1.7346473 1.334204,2.2025543 0.08382,0.1328621 0.221495,0.3562206 0.305942,0.4963534 0.205913,0.3416781 1.698795,2.7960109 1.910843,3.1414589 0.0926,0.150867 0.2221,0.362468 0.287775,0.470229 0.06566,0.10776 0.596601,0.977679 1.179843,1.933158 0.58324,0.955478 1.16726,1.913563 1.29782,2.129084 0.130565,0.215522 0.279197,0.456516 0.3303,0.53554 0.0511,0.07903 0.188299,0.302381 0.304874,0.496348 0.116571,0.193969 0.434496,0.717098 0.706502,1.162509 0.272005,0.44541 0.68768,1.127236 0.923723,1.515176 0.480621,0.789895 1.795423,2.944274 2.224069,3.644265 0.153978,0.25144 0.569952,0.93327 0.924392,1.515179 0.643415,1.056323 1.300047,2.131702 1.87428,3.069539 0.167151,0.272992 0.532387,0.872533 0.811633,1.332311 0.279244,0.459775 0.586833,0.959392 0.683527,1.11026 0.276679,0.431689 0.289565,0.459873 0.261017,0.570955 -0.0362,0.140871 -0.498121,1.478134 -1.007432,2.916565 -0.311479,0.879684 -0.346378,0.979844 -0.68718,1.972341 -0.238922,0.695796 -0.298316,0.835963 -0.354244,0.835963 -0.04476,0 -0.145379,-0.141767 -0.413209,-0.582184 C 35.697699,36.443467 35.188257,35.606292 34.716016,34.830416 34.243773,34.054542 33.64677,33.072942 33.38934,32.649083 33.13191,32.225225 32.823359,31.71973 32.703674,31.525761 32.583987,31.331794 32.273509,30.826296 32.013723,30.402441 31.753939,29.978585 31.407324,29.41431 31.243466,29.148502 31.079613,28.882694 30.830091,28.472974 30.68898,28.238018 30.547865,28.003061 30.3229,27.632756 30.189052,27.415118 30.055205,27.197483 29.847207,26.857088 29.72683,26.658687 29.606456,26.460281 29.273,25.913644 28.985816,25.44393 c -0.287185,-0.46971 -0.679701,-1.112649 -0.872257,-1.428747 -0.40453,-0.664073 -0.94887,-1.556076 -1.394915,-2.28583 -0.171248,-0.280175 -0.38523,-0.632845 -0.475514,-0.783709 -0.228333,-0.381542 -1.871769,-3.075616 -2.03184,-3.330777 -0.07211,-0.114948 -0.463157,-0.755632 -0.868991,-1.423747 -0.405839,-0.668115 -0.879302,-1.443988 -1.052142,-1.724167 -0.172844,-0.280179 -0.440943,-0.71765 -0.59578,-0.972155 -0.154831,-0.254506 -0.520539,-0.854046 -0.81268,-1.332311 -0.292141,-0.478265 -0.555867,-0.919704 -0.586054,-0.980974 -0.03019,-0.06128 -0.06624,-0.10745 -0.08013,-0.102612 -0.04173,0.01454 -0.161135,0.199871 -0.705906,1.095587 -0.706794,1.162117 -0.984362,1.616801 -1.754656,2.874314 -1.165643,1.90293 -1.336527,2.183195 -1.476489,2.421605 -0.07559,0.12874 -0.308873,0.511567 -0.518436,0.850726 -0.209559,0.339157 -0.381018,0.63714 -0.381018,0.66218 0,0.02505 0.112296,0.227005 0.249553,0.448798 0.137254,0.221799 0.37617,0.61221 0.530929,0.867577 0.318186,0.525044 0.986217,1.62468 1.725525,2.840352 0.27524,0.45259 0.607009,0.999231 0.737259,1.214753 0.130248,0.21552 0.351791,0.574069 0.492322,0.796774 0.255995,0.405691 0.670937,1.128709 0.710999,1.238881 0.01825,0.05019 0.151803,0.278962 0.317838,0.544449 0.02485,0.03972 0.173756,0.268957 0.330915,0.509411 0.304263,0.465524 0.416385,0.656286 0.533331,0.90742 0.04015,0.08621 0.09833,0.192007 0.129297,0.235109 0.03098,0.04311 0.08176,0.131276 0.11287,0.19593 0.03111,0.06465 0.09231,0.170458 0.136001,0.235116 0.04369,0.06465 0.139949,0.229235 0.213905,0.365731 0.07395,0.136496 0.25049,0.434021 0.392288,0.661164 0.141798,0.22714 0.257815,0.420005 0.257815,0.428576 0,0.0086 0.02811,0.05412 0.06245,0.101212 0.07513,0.102992 0.07849,0.176179 0.01386,0.302252 -0.02676,0.05216 -0.100997,0.257697 -0.165033,0.45678 -0.06403,0.199085 -0.178154,0.532426 -0.253586,0.74076 -0.131689,0.363715 -0.244549,0.683663 -0.419279,1.188633 -0.189949,0.548963 -0.34344,0.976043 -0.399017,1.11026 -0.03272,0.07902 -0.13268,0.355281 -0.22213,0.613908 -0.08945,0.258625 -0.236551,0.675302 -0.326894,0.925951 -0.09034,0.250645 -0.164252,0.465884 -0.164252,0.47831 0,0.0124 -0.06091,0.171774 -0.135348,0.354112 -0.07444,0.18234 -0.149392,0.374491 -0.166557,0.426999 -0.03228,0.09876 -0.08366,0.109998 -0.10976,0.024 -0.0076,-0.02502 -0.09797,-0.185256 -0.200831,-0.356079 -0.10286,-0.170823 -0.187022,-0.323384 -0.187022,-0.339026 0,-0.01563 -0.02317,-0.05444 -0.05149,-0.08622 -0.06576,-0.07381 -0.64674,-1.01634 -0.676059,-1.096792 -0.02945,-0.08081 -0.664187,-1.123314 -0.734537,-1.206419 -0.06605,-0.07802 -0.652427,-1.043975 -0.714994,-1.177822 -0.06204,-0.132714 -0.965858,-1.616985 -1.032623,-1.695793 -0.06836,-0.0807 -1.386543,-2.247633 -1.463688,-2.406136 -0.07866,-0.161618 -0.343976,-0.598369 -0.410931,-0.676466 -0.05124,-0.05977 -1.877026,-3.044355 -2.169797,-3.54694 -0.101309,-0.173912 -0.132018,-0.209654 -0.157114,-0.182866 -0.01715,0.01831 -0.263844,0.415356 -0.548198,0.882318 -1.097667,1.802569 -2.6443912,4.341169 -3.6210551,5.943154 -0.5606181,0.919553 -1.5779233,2.588863 -2.2606853,3.709573 -1.5337447,2.517554 -1.4551527,2.391063 -1.5310153,2.464045 l -0.06305,0.06066 z M 19.621757,23.252813 c 0.01806,-0.0076 0.03958,-0.0066 0.04788,0.0022 0.0083,0.0087 -0.0064,0.01488 -0.03278,0.01373 -0.0291,-0.0015 -0.03503,-0.0075 -0.01513,-0.01578 z"
       id="path24" />
  </g>
</svg>
